<?xml version="1.0" standalone="no"?>
<!DOCTYPE svg PUBLIC "-//W3C//DTD SVG 20010904//EN"
 "http://www.w3.org/TR/2001/REC-SVG-20010904/DTD/svg10.dtd">
<svg version="1.0" xmlns="http://www.w3.org/2000/svg"
 width="16.000000pt" height="16.000000pt" viewBox="0 0 16.000000 16.000000"
 preserveAspectRatio="xMidYMid meet">
<metadata>
Created by potrace 1.11, written by Peter Selinger 2001-2013
</metadata>
<g transform="translate(0.000000,16.000000) scale(0.002730,-0.002730)"
fill="#000000" stroke="none">
<path d="M546 4490 c7 -139 7 -1017 -1 -1140 l-6 -105 258 1 c286 0 315 5 403
65 138 94 188 319 106 478 -39 74 -168 171 -230 171 -11 0 7 13 40 30 163 81
232 239 183 417 -20 75 -94 143 -184 169 -16 5 -153 9 -302 9 l-273 0 6 -95z
m433 5 c80 -41 116 -125 109 -257 -3 -67 -10 -93 -33 -136 -28 -51 -97 -110
-134 -114 -61 -5 -133 -3 -138 5 -5 8 -5 415 1 482 1 22 8 31 26 35 41 11 137
2 169 -15z m0 -611 c82 -42 122 -131 122 -274 1 -194 -89 -301 -247 -294 -36
1 -68 4 -70 6 -3 4 -7 411 -5 531 l1 58 76 -2 c57 -1 88 -8 123 -25z"/>
<path d="M5220 4577 c-138 -28 -241 -170 -242 -335 -2 -163 48 -236 234 -348
60 -36 119 -76 132 -87 70 -66 78 -181 17 -251 -46 -53 -149 -65 -220 -26 -43
25 -83 76 -94 121 -7 28 -36 48 -38 26 -1 -14 -1 -14 -23 -121 -19 -92 -17
-97 59 -125 136 -51 295 -31 407 52 42 31 95 114 114 177 11 38 15 79 12 135
-8 151 -58 218 -247 329 -63 37 -121 75 -128 84 -52 65 -67 113 -51 169 12 42
58 90 96 99 15 3 32 7 38 9 7 2 30 -1 53 -7 48 -12 97 -57 118 -105 22 -54 29
-47 59 62 2 6 6 26 9 45 7 35 5 37 -42 62 -77 42 -169 54 -263 35z"/>
<path d="M1439 4560 c-1 -3 0 -48 2 -100 5 -157 3 -890 -3 -962 -3 -38 -2 -68
1 -68 3 -1 56 -2 118 -3 l111 -2 -5 263 c-3 144 -3 262 1 262 4 0 65 -117 135
-261 l128 -261 151 -2 150 -1 16 65 c34 139 79 268 95 272 14 4 254 3 303 -1
17 -1 33 -46 91 -250 l23 -83 122 -2 c67 0 122 2 122 6 0 4 -21 62 -46 130
-58 154 -195 552 -280 810 l-65 196 -57 1 -58 0 -58 -172 c-59 -176 -71 -210
-184 -522 -36 -99 -71 -198 -79 -220 -7 -22 -18 -49 -22 -60 -5 -11 -12 -29
-15 -39 -4 -10 -8 -17 -10 -15 -21 23 -241 438 -235 443 2 2 25 13 51 26 108
53 163 145 162 275 -1 99 -28 170 -86 219 -62 53 -105 61 -355 61 -123 0 -223
-2 -224 -5z m358 -106 c58 -22 84 -76 87 -180 5 -159 -63 -254 -184 -254 l-41
0 2 225 1 225 46 0 c26 0 65 -7 89 -16z m763 -390 c33 -103 60 -191 60 -195 0
-5 -58 -8 -129 -8 l-129 1 30 92 c16 50 33 100 38 111 4 11 21 57 36 103 16
45 30 82 31 82 1 0 29 -84 63 -186z"/>
<path d="M3095 4563 l-61 -4 0 -322 c0 -307 -8 -607 -20 -747 l-5 -65 65 0
c66 0 74 5 66 40 -6 22 -5 747 1 750 6 4 336 -408 511 -639 l113 -149 58 -1
57 -1 0 40 c1 211 10 762 16 885 3 85 7 168 7 184 2 28 2 28 -62 28 l-63 0 2
-143 c5 -309 5 -629 0 -629 -3 0 -33 35 -66 78 -208 261 -353 444 -448 565
-59 75 -108 136 -109 135 -1 -1 -29 -3 -62 -5z"/>
<path d="M3995 3995 l0 -570 260 1 c239 0 264 2 312 21 165 66 277 195 329
378 24 86 28 290 8 380 -23 98 -61 172 -117 228 -59 57 -101 80 -204 108 -70
20 -103 22 -333 23 l-255 1 0 -570z m476 456 c91 -34 169 -127 198 -236 19
-72 22 -99 21 -190 -1 -215 -42 -340 -143 -431 -62 -55 -122 -74 -242 -74
l-91 0 1 463 c0 254 3 467 7 473 5 7 45 12 101 13 73 2 106 -3 148 -18z"/>
<path d="M4904 4552 c-31 -20 -21 -71 16 -84 29 -9 12 -83 -22 -93 -19 -7 -24
-20 -9 -29 13 -8 74 36 88 64 37 74 -17 179 -73 142z"/>
<path d="M5665 4546 c-113 -49 -66 -229 55 -210 41 7 56 18 76 55 47 93 -39
194 -131 155z m72 -16 c59 -21 72 -103 24 -151 -60 -60 -142 -18 -141 73 1 36
14 58 45 76 25 14 35 15 72 2z"/>
<path d="M5663 4445 c0 -43 4 -64 11 -62 6 2 10 13 8 25 -5 33 15 35 34 2 25
-41 46 -42 24 0 -7 13 -5 26 5 47 13 25 13 29 -2 41 -9 6 -31 12 -48 12 l-32
0 0 -65z m70 31 c4 -9 -2 -17 -13 -21 -24 -8 -40 1 -40 21 0 19 46 19 53 0z"/>
<path d="M2710 3196 c-3 -2 -54 -7 -115 -10 -60 -4 -123 -9 -140 -11 -16 -2
-59 -7 -95 -10 -36 -3 -78 -7 -95 -10 -16 -2 -62 -6 -101 -9 -39 -4 -80 -8
-90 -10 -10 -2 -44 -7 -74 -10 -30 -4 -66 -8 -80 -10 -14 -2 -52 -8 -85 -12
-33 -4 -67 -8 -75 -9 -95 -14 -192 -27 -220 -31 -19 -3 -46 -7 -60 -9 -14 -3
-43 -7 -65 -10 -22 -4 -65 -10 -95 -15 -52 -9 -91 -15 -150 -25 -42 -7 -273
-46 -300 -50 -14 -3 -68 -13 -121 -23 l-96 -18 -33 64 c-18 35 -49 81 -70 103
-43 45 -65 48 -177 25 -38 -8 -80 -17 -93 -19 -14 -3 -51 -12 -82 -21 -32 -9
-82 -23 -111 -31 l-53 -14 73 -76 c102 -106 165 -239 189 -400 3 -22 7 -41 9
-43 3 -3 190 94 210 109 32 24 46 14 75 -54 38 -90 84 -160 115 -177 30 -16
68 -8 345 73 69 20 665 158 748 173 39 7 64 12 217 44 82 16 202 39 265 50 63
11 126 22 140 25 14 3 39 7 57 10 18 2 58 9 90 14 125 22 454 67 623 86 30 3
73 8 95 11 22 2 60 6 85 8 25 3 77 7 115 11 121 11 148 13 240 20 50 3 113 8
141 10 243 20 1050 27 1334 12 232 -12 357 -21 465 -33 61 -7 61 -7 -77 85
-109 73 -144 86 -288 106 -25 3 -72 10 -105 15 -57 8 -102 14 -212 25 -155 15
-239 23 -353 30 -47 3 -105 7 -130 10 -25 2 -110 7 -190 10 -80 4 -172 9 -205
11 -78 7 -1389 16 -1395 10z"/>
<path d="M974 1908 c-24 -75 -99 -454 -91 -459 5 -4 17 -5 26 -2 16 4 31 54
57 193 3 14 9 41 14 60 5 19 16 71 25 115 9 44 18 88 21 98 4 13 0 17 -20 17
-17 0 -27 -7 -32 -22z"/>
<path d="M1765 1921 c-3 -5 -25 -103 -50 -218 -25 -114 -47 -218 -50 -231 -5
-21 -2 -23 22 -20 24 3 29 9 35 43 15 89 19 110 23 113 2 2 29 -35 59 -82 52
-81 58 -86 91 -86 28 0 35 4 35 19 0 13 -8 21 -22 23 -15 2 -39 27 -70 72 -27
38 -48 72 -48 75 1 11 132 92 151 94 12 1 18 7 17 17 -2 10 -12 14 -33 12 -28
-4 -69 -29 -144 -89 -19 -16 -32 -23 -29 -18 3 6 9 26 12 45 3 19 14 76 26
125 11 50 20 96 20 103 0 14 -36 17 -45 3z"/>
<path d="M2082 1898 c-27 -27 -3 -66 32 -52 31 12 29 64 -3 64 -9 0 -22 -5
-29 -12z"/>
<path d="M189 1865 c-14 -32 -61 -256 -64 -305 -1 -24 2 -54 8 -67 37 -82 210
-81 266 2 21 31 53 125 65 192 3 13 12 59 21 104 17 82 13 105 -17 94 -10 -4
-24 -50 -43 -138 -47 -220 -69 -259 -152 -273 -30 -4 -44 -1 -66 16 -36 29
-36 67 3 243 17 76 30 141 30 145 0 17 -43 6 -51 -13z"/>
<path d="M3189 1876 c-102 -36 -159 -130 -160 -262 -1 -105 36 -157 124 -173
41 -7 154 11 168 27 4 4 10 25 13 47 3 22 10 56 16 75 14 49 13 52 -17 48 -24
-3 -28 -9 -39 -65 -7 -35 -15 -67 -19 -72 -11 -19 -90 -23 -129 -7 -48 20 -67
64 -62 143 5 74 38 146 83 180 44 34 125 43 170 19 28 -14 32 -14 37 0 10 26
7 32 -25 43 -42 15 -115 13 -160 -3z"/>
<path d="M4423 1830 c-14 -6 -24 -21 -29 -44 -5 -31 -10 -36 -35 -36 -23 0
-29 -5 -29 -20 0 -12 6 -20 13 -19 34 4 34 -2 11 -102 -35 -147 -31 -169 31
-169 39 0 96 35 89 54 -5 12 -9 12 -33 -2 -35 -20 -63 -10 -57 20 36 183 48
210 89 202 19 -3 36 10 37 29 0 4 -16 7 -36 7 l-35 0 7 45 c3 25 5 45 3 44 -2
0 -14 -4 -26 -9z"/>
<path d="M680 1739 c-21 -15 -43 -36 -49 -46 -8 -14 -10 -10 -8 22 2 33 -1 40
-18 40 -18 0 -24 -17 -52 -145 -18 -80 -32 -148 -33 -151 0 -4 9 -9 21 -12 23
-6 29 4 54 106 20 78 47 122 94 154 25 17 38 20 52 12 24 -12 24 -33 -1 -139
-11 -47 -22 -95 -25 -106 -4 -17 1 -23 19 -26 23 -5 26 0 51 101 31 128 34
165 11 190 -29 32 -72 32 -116 0z"/>
<path d="M1203 1759 c-81 -15 -132 -77 -140 -170 -10 -100 30 -149 120 -149
61 0 105 32 140 100 66 127 3 241 -120 219z m68 -50 c18 -18 21 -30 17 -78 -2
-31 -12 -73 -22 -94 -41 -84 -140 -84 -151 1 -15 122 90 237 156 171z"/>
<path d="M1515 1760 c-86 -19 -145 -101 -145 -202 0 -75 40 -117 110 -118 57
0 136 45 118 67 -8 11 -16 9 -42 -6 -37 -23 -63 -28 -93 -17 -57 19 -43 160
23 221 37 34 70 32 92 -4 14 -23 21 -27 35 -20 51 29 -30 94 -98 79z"/>
<path d="M2333 1755 c-16 -7 -41 -27 -56 -44 l-27 -32 3 37 c2 37 -8 50 -30
36 -6 -4 -23 -63 -37 -132 -14 -69 -28 -135 -32 -146 -7 -25 17 -38 38 -21 8
7 22 47 32 89 25 112 92 193 149 181 24 -6 22 -47 -7 -168 -16 -65 -21 -102
-14 -106 15 -9 45 0 45 14 0 7 10 50 21 97 32 128 33 146 11 174 -23 29 -58
37 -96 21z"/>
<path d="M2651 1759 c-81 -17 -143 -104 -147 -204 -3 -61 -2 -65 29 -91 26
-22 38 -25 76 -21 33 4 52 12 68 32 28 32 28 33 3 -47 -19 -63 -50 -104 -80
-108 -36 -5 -60 2 -87 24 -29 24 -29 24 -41 5 -16 -25 -8 -37 34 -55 77 -32
164 -6 200 61 17 31 83 294 97 384 3 23 -42 21 -49 -3 -6 -17 -8 -18 -18 -5
-19 26 -49 36 -85 28z m61 -46 c24 -22 23 -85 -2 -141 -27 -61 -64 -92 -108
-92 -98 0 -21 247 77 250 8 0 23 -7 33 -17z"/>
<path d="M4112 1759 c-145 -31 -194 -319 -55 -319 37 0 97 35 112 65 l10 20 1
-20 c4 -58 11 -69 37 -61 15 5 18 14 15 50 -2 24 6 90 17 146 25 125 25 120 2
120 -14 0 -22 -10 -26 -32 l-7 -32 -14 25 c-17 33 -51 47 -92 38z m55 -37 c32
-20 36 -107 7 -163 -19 -37 -71 -79 -98 -79 -32 0 -46 19 -46 65 0 112 79 214
137 177z"/>
<path d="M4732 1762 c-13 -2 -41 -21 -61 -41 l-38 -38 7 33 c6 25 4 34 -8 39
-8 3 -20 1 -25 -4 -5 -5 -24 -75 -42 -155 l-32 -146 27 0 c25 0 28 4 44 79 19
92 65 168 112 187 65 27 71 -11 29 -177 -22 -82 -20 -97 9 -92 21 4 26 17 51
123 31 135 28 167 -21 185 -16 6 -39 9 -52 7z"/>
<path d="M5295 1758 c-47 -10 -75 -39 -75 -78 0 -44 8 -57 60 -90 26 -17 50
-40 53 -52 8 -29 -8 -56 -37 -64 -26 -6 -82 18 -88 38 -3 8 -9 4 -17 -11 -21
-38 6 -56 85 -56 60 0 68 3 90 28 15 18 24 41 24 63 0 37 -13 53 -83 107 -41
31 -47 61 -18 77 28 15 58 12 87 -7 22 -14 27 -14 35 -2 5 8 7 18 6 24 -6 18
-80 32 -122 23z"/>
<path d="M5562 1759 c-44 -9 -82 -46 -82 -79 0 -34 23 -65 70 -95 21 -13 41
-33 45 -44 8 -26 -9 -58 -35 -66 -22 -7 -90 22 -90 39 -1 12 -30 -23 -30 -36
0 -16 61 -38 104 -38 65 0 110 40 108 96 -1 39 -17 60 -85 106 -72 50 -4 120
69 71 22 -14 27 -14 35 -2 5 8 9 17 9 21 0 20 -72 37 -118 27z"/>
<path d="M2074 1753 c-18 -4 -24 -19 -43 -116 -13 -62 -27 -127 -33 -146 -11
-37 3 -57 31 -41 15 8 83 298 72 304 -3 1 -15 0 -27 -1z"/>
<path d="M3484 1749 c-6 -11 -40 -150 -49 -202 -3 -17 -10 -47 -15 -64 -8 -31
-7 -33 20 -33 25 0 28 4 39 58 11 56 47 141 73 173 24 29 58 42 74 28 11 -9
17 -9 29 1 22 18 1 50 -34 50 -30 0 -52 -16 -90 -65 l-23 -30 7 28 c12 47 11
60 -7 62 -10 2 -21 -1 -24 -6z"/>
<path d="M3775 1748 c-11 -6 -31 -20 -43 -32 -80 -71 -89 -239 -15 -267 56
-21 139 -4 172 35 25 29 1 35 -44 11 -36 -19 -51 -22 -76 -15 -40 12 -40 11
-46 59 l-6 41 39 0 c131 0 220 94 151 158 -26 24 -97 30 -132 10z m93 -31 c6
-7 9 -22 7 -32 -2 -11 -4 -23 -4 -26 -2 -15 -56 -41 -97 -46 -49 -6 -53 1 -29
47 30 57 97 89 123 57z"/>
<path d="M4985 1741 c-64 -39 -96 -103 -96 -190 0 -50 3 -59 30 -83 43 -39
110 -39 169 -1 32 21 39 30 30 40 -8 11 -17 9 -45 -8 -67 -42 -133 -15 -133
52 0 27 3 29 38 30 51 1 78 7 112 24 59 31 78 92 40 133 -27 28 -102 30 -145
3z m105 -26 c17 -20 5 -61 -24 -80 -31 -20 -116 -32 -116 -16 0 22 30 69 56
90 31 25 66 27 84 6z"/>
</g>
</svg>
